<svg width="20" height="20" viewBox="0 0 20 20" fill="none" xmlns="http://www.w3.org/2000/svg">
<path fill-rule="evenodd" clip-rule="evenodd" d="M7.67701 12.3242C8.92136 13.5686 10.2883 14.5701 11.6855 15.3064L14.3069 12.6321L19.0737 13.7314C19.5694 13.8465 20 14.147 20 14.6553V17.9604C20 19.022 19.1812 19.8984 18.1222 19.9711C13.9713 20.2591 9.17642 18.3911 5.3933 14.6079C1.60784 10.822 -0.254839 6.02669 0.0280351 1.87795C0.100703 0.818831 0.976895 0 2.03856 0H5.34339C5.85159 0 6.15455 0.428084 6.26969 0.923877L7.36887 5.69363L4.69503 8.31544C5.43118 9.71005 6.43267 11.0773 7.67701 12.3242Z" fill="#F6F6F6"/>
</svg>
