<svg width="14" height="20" viewBox="0 0 14 20" fill="none" xmlns="http://www.w3.org/2000/svg">
<path d="M7.00019 4.08563e-05C5.14522 0.00481322 3.36748 0.731961 2.05564 2.02252C0.744042 3.31309 0.0050083 5.06199 0 6.88693C0 10.5517 6.35806 19.1218 6.64779 19.4936L7.0326 20L7.3849 19.4618C7.64214 19.1219 14 10.5516 14 6.88688C13.995 5.06183 13.2559 3.31292 11.9444 2.02248C10.6326 0.73192 8.8549 0.00476463 6.9998 0L7.00019 4.08563e-05ZM7.03269 9.85859C6.23348 9.85859 5.46712 9.54633 4.90189 8.99037C4.33682 8.43425 4.01944 7.68022 4.01944 6.89393C4.01944 6.10777 4.33682 5.35361 4.90189 4.79762C5.46712 4.24166 6.23352 3.9294 7.03269 3.9294C7.83174 3.9294 8.59826 4.24166 9.16337 4.79762C9.72844 5.35357 10.046 6.10777 10.046 6.89393C10.046 7.68026 9.72844 8.43425 9.16337 8.99037C8.5983 9.54633 7.83174 9.85859 7.03269 9.85859Z" fill="#CA3030"/>
</svg>
