<svg width="20" height="20" viewBox="0 0 20 20" fill="none" xmlns="http://www.w3.org/2000/svg">
<path d="M10 0C7.34783 0 4.80424 1.05354 2.92894 2.92894C1.05354 4.80434 0 7.34768 0 10C0 12.6523 1.05354 15.1958 2.92894 17.0711C4.80434 18.9465 7.34768 20 10 20C12.6523 20 15.1958 18.9465 17.0711 17.0711C18.9465 15.1957 20 12.6523 20 10C19.997 7.34887 18.9424 4.80709 17.0676 2.93258C15.1931 1.0578 12.6511 0.00301294 10 0ZM13.3699 13.3697C13.1994 13.5401 12.9683 13.6359 12.7272 13.6359C12.4862 13.6359 12.255 13.5401 12.0846 13.3697L9.35736 10.6424C9.1867 10.472 9.09093 10.2409 9.09093 9.99979V4.54533C9.09093 4.22046 9.26422 3.92035 9.54547 3.75802C9.82672 3.59568 10.1733 3.59568 10.4545 3.75802C10.7358 3.92035 10.9091 4.22047 10.9091 4.54533V9.62338L13.3699 12.0842C13.5403 12.2546 13.6361 12.486 13.6361 12.727C13.6361 12.9681 13.5403 13.1992 13.3699 13.3697Z" fill="#F6F6F6"/>
</svg>
